<?xml version="1.0" encoding="UTF-8"?>
<svg width="50px" height="52px" viewBox="0 0 50 52" version="1.1" xmlns="http://www.w3.org/2000/svg" xmlns:xlink="http://www.w3.org/1999/xlink">
    <!-- Generator: Sketch 46 (44423) - http://www.bohemiancoding.com/sketch -->
    <title>student-icon</title>
    <desc>Created with Sketch.</desc>
    <defs>
        <path d="M14.3996169,9.56425148 L34.569734,14.4944115 L34.569734,14.4944115 C36.0193904,14.8487495 37.1512505,15.9806096 37.5055885,17.430266 L42.4357485,37.6003831 L42.4357485,37.6003831 C42.960284,39.7463462 41.6458572,41.9112131 39.4998941,42.4357485 C38.8759086,42.5882686 38.2243686,42.5882686 37.6003831,42.4357485 L17.430266,37.5055885 L17.430266,37.5055885 C15.9806096,37.1512505 14.8487495,36.0193904 14.4944115,34.569734 L9.56425148,14.3996169 L9.56425148,14.3996169 C9.03971602,12.2536538 10.3541428,10.0887869 12.5001059,9.56425148 C13.1240914,9.41173139 13.7756314,9.41173139 14.3996169,9.56425148 Z" id="path-1"></path>
    </defs>
    <g id="Page-1" stroke="none" stroke-width="1" fill="none" fill-rule="evenodd">
        <g id="Landing-Page" transform="translate(-218.000000, -529.000000)">
            <g id="top-section">
                <g id="four-boxes" transform="translate(120.000000, 511.000000)">
                    <g id="Student-Trucking">
                        <g id="student-icon" transform="translate(97.000000, 10.000000)">
                            <rect id="Rectangle-6" fill="#373737" x="6" y="26" width="2" height="28" rx="1"></rect>
                            <rect id="Rectangle-7" fill="#373737" x="4" y="49" width="6" height="8" rx="2"></rect>
                            <path d="M14,28 L38,28 L38,28 C40.209139,28 42,29.790861 42,32 L42,41.8857232 L42.0000029,41.8857232 C42.0000029,43.2431377 41.3115954,44.5079232 40.1716538,45.2448812 C35.1632335,48.4827624 30.439349,50.101703 26,50.101703 C21.5606531,50.101703 16.8367708,48.4827639 11.8283531,45.2448857 L11.8283505,45.2448896 C10.688408,44.5079312 10,43.243145 10,41.8857296 L10,32 L10,32 C10,29.790861 11.790861,28 14,28 Z" id="Rectangle-5" fill="#373737"></path>
                            <g id="Rectangle" transform="translate(26.000000, 26.000000) rotate(-45.000000) translate(-26.000000, -26.000000) ">
                                <use fill="#373737" fill-rule="evenodd" xlink:href="#path-1"></use>
                                <path stroke="#FFFFFF" stroke-width="3" d="M14.7557752,8.10714775 L34.9258923,13.0373078 C36.9191699,13.5245225 38.4754775,15.0808301 38.9626922,17.0741077 L43.8928522,37.2442248 C44.6140885,40.1949241 42.8067516,43.171616 39.8560523,43.8928522 C38.9980724,44.1025674 38.1022048,44.1025674 37.2442248,43.8928522 L17.0741077,38.9626922 C15.0808301,38.4754775 13.5245225,36.9191699 13.0373078,34.9258923 L8.10714775,14.7557752 C7.3859115,11.8050759 9.19324837,8.828384 12.1439477,8.10714775 C13.0019276,7.89743263 13.8977952,7.89743263 14.7557752,8.10714775 Z"></path>
                            </g>
                            <rect id="Rectangle-8-Copy" fill="#373737" x="5" y="56.429548" width="1" height="3.19963728" rx="0.5"></rect>
                            <rect id="Rectangle-8-Copy-2" fill="#373737" x="8" y="56.429548" width="1" height="3.19963728" rx="0.5"></rect>
                            <rect id="Rectangle-8-Copy-3" fill="#373737" x="6.5" y="56.429548" width="1" height="3.19963728" rx="0.5"></rect>
                        </g>
                    </g>
                </g>
            </g>
        </g>
    </g>
</svg>