<?xml version="1.0" encoding="UTF-8"?>
<svg width="51px" height="37px" viewBox="0 0 51 37" version="1.1" xmlns="http://www.w3.org/2000/svg" xmlns:xlink="http://www.w3.org/1999/xlink">
    <!-- Generator: Sketch 46 (44423) - http://www.bohemiancoding.com/sketch -->
    <title>van-icon</title>
    <desc>Created with Sketch.</desc>
    <defs>
        <rect id="path-1" x="17" y="0" width="32" height="17" rx="1"></rect>
    </defs>
    <g id="Page-1" stroke="none" stroke-width="1" fill="none" fill-rule="evenodd">
        <g id="Landing-Page" transform="translate(-973.000000, -536.000000)">
            <g id="top-section">
                <g id="four-boxes" transform="translate(120.000000, 511.000000)">
                    <g id="Dry-Van-Trucking" transform="translate(754.000000, 0.000000)">
                        <g id="van-icon" transform="translate(99.000000, 27.000000)">
                            <path d="M10.8841639,4 L48,4 L48,4 C48.5522847,4 49,4.44771525 49,5 L49,26 L49,26 C49,27.1045695 48.1045695,28 47,28 L2,28 L2,28 C0.8954305,28 1.3527075e-16,27.1045695 0,26 L0,15.7631287 L2.22044605e-15,15.7631287 C2.60166764e-15,15.2652643 0.185690792,14.7852989 0.520768005,14.4170705 L9.40493194,4.65394179 L9.40493194,4.65394179 C9.78395132,4.2374237 10.3210094,4 10.8841639,4 Z" id="Rectangle-16" fill="#373737"></path>
                            <circle id="Oval-2" stroke="#FFFFFF" stroke-width="2" fill="#373737" cx="8" cy="29" r="5"></circle>
                            <circle id="Oval-2-Copy" stroke="#FFFFFF" stroke-width="2" fill="#373737" cx="42" cy="29" r="5"></circle>
                            <g id="Rectangle-17">
                                <use fill="#373737" fill-rule="evenodd" xlink:href="#path-1"></use>
                                <rect stroke="#FFFFFF" stroke-width="2" x="16" y="-1" width="34" height="19" rx="1"></rect>
                            </g>
                        </g>
                    </g>
                </g>
            </g>
        </g>
    </g>
</svg>